<svg xmlns="http://www.w3.org/2000/svg" viewBox="0 0 496 512">
  <path fill="#FA57C1" d="M318.7 268c0-36.2 17.3-63.6 52.2-83.8-19.5-27.8-49.2-43.9-86.6-43.9-36.5 0-69.1 21.6-87 21.6-18.3 0-53.3-20.7-87.7-20.7C63.4 141.2 0 197 0 291.6 0 354.5 25.4 430.4 74 486.7c23.7 28.4 52 59.3 90 59.3 35.7 0 47.8-23.4 87-23.4 39.6 0 50.4 23.4 86.6 23.4 39.5 0 66.3-32.6 90-61.4 16.1-19.8 22.7-30 35.4-52.8-92.7-35.4-103.3-167.3-18.3-208.8-21.7-33-55-47-90-47-37.6 0-67.2 21.3-86.7 21.3-18.6 0-51.3-20.5-86.6-20.5-36.8 0-73.7 21.8-92.3 54.4-24.3 41.4-19.1 100.7 16.1 135.8 22.7 22.7 52 39.1 86.1 39.1 31.2 0 61-13.7 86.6-36.8 1.8-1.5 2.7-3.6 2.7-5.9v-94.6z"/>
</svg>
