<svg xmlns="http://www.w3.org/2000/svg" viewBox="0 0 496 512">
  <path fill="#1DB954" d="M248 8C111 8 0 119 0 256s111 248 248 248 248-111 248-248S385 8 248 8zm121 363c-5 0-8-2-12-4-66-39-148-43-245-14-6 2-14-2-16-9s2-14 9-16c105-31 195-26 269 16 6 4 9 12 5 19-3 5-8 8-13 8zm17-65c-5 0-10-2-14-5-76-45-192-58-281-17-7 3-15 0-18-7s0-15 7-18c98-44 224-30 308 19 6 4 9 13 5 20-3 5-7 8-12 8zm1-69c-4 0-7-1-11-3-85-50-226-55-310-17-8 3-17 0-20-8s0-17 8-20c95-43 248-37 343 20 7 4 10 13 6 21-3 4-9 7-16 7z"/>
</svg>
